<svg width="108" height="30" viewBox="0 0 108 30" fill="none" xmlns="http://www.w3.org/2000/svg">
<path d="M18.0081 23H0.152053V18.712L11.9601 4.504H0.568053V0.311998H17.8481V4.44L5.84805 18.776H18.0081V23ZM25.6188 18.424C26.4081 19.2133 27.3575 19.608 28.4668 19.608C29.5761 19.608 30.5148 19.2133 31.2828 18.424C32.0721 17.6347 32.4668 16.536 32.4668 15.128C32.4668 13.72 32.0721 12.6213 31.2828 11.832C30.5148 11.0427 29.5761 10.648 28.4668 10.648C27.3575 10.648 26.4081 11.0427 25.6188 11.832C24.8508 12.6213 24.4668 13.72 24.4668 15.128C24.4668 16.536 24.8508 17.6347 25.6188 18.424ZM22.5468 9.144C24.1255 7.56533 26.0988 6.776 28.4668 6.776C30.8348 6.776 32.7975 7.56533 34.3548 9.144C35.9335 10.7227 36.7228 12.7173 36.7228 15.128C36.7228 17.5387 35.9335 19.5333 34.3548 21.112C32.7975 22.6907 30.8348 23.48 28.4668 23.48C26.0988 23.48 24.1255 22.6907 22.5468 21.112C20.9895 19.5333 20.2108 17.5387 20.2108 15.128C20.2108 12.7173 20.9895 10.7227 22.5468 9.144ZM44.3063 18.424C45.0956 19.2133 46.045 19.608 47.1543 19.608C48.2636 19.608 49.2023 19.2133 49.9703 18.424C50.7596 17.6347 51.1543 16.536 51.1543 15.128C51.1543 13.72 50.7596 12.6213 49.9703 11.832C49.2023 11.0427 48.2636 10.648 47.1543 10.648C46.045 10.648 45.0956 11.0427 44.3063 11.832C43.5383 12.6213 43.1543 13.72 43.1543 15.128C43.1543 16.536 43.5383 17.6347 44.3063 18.424ZM41.2343 9.144C42.813 7.56533 44.7863 6.776 47.1543 6.776C49.5223 6.776 51.485 7.56533 53.0423 9.144C54.621 10.7227 55.4103 12.7173 55.4103 15.128C55.4103 17.5387 54.621 19.5333 53.0423 21.112C51.485 22.6907 49.5223 23.48 47.1543 23.48C44.7863 23.48 42.813 22.6907 41.2343 21.112C39.677 19.5333 38.8983 17.5387 38.8983 15.128C38.8983 12.7173 39.677 10.7227 41.2343 9.144ZM63.0258 23H58.7698V7.256H62.8338V9.176C63.2391 8.45067 63.8791 7.87467 64.7538 7.448C65.6285 7.02133 66.5245 6.808 67.4418 6.808C69.7245 6.808 71.2818 7.68267 72.1138 9.432C73.2445 7.68267 74.9085 6.808 77.1058 6.808C78.7058 6.808 80.0498 7.30933 81.1378 8.312C82.2471 9.31467 82.8018 10.808 82.8018 12.792V23H78.6738V13.656C78.6738 12.76 78.4391 12.0453 77.9698 11.512C77.5218 10.9573 76.8285 10.68 75.8898 10.68C75.0151 10.68 74.3111 10.9787 73.7778 11.576C73.2445 12.1733 72.9778 12.9093 72.9778 13.784V23H68.7538V13.656C68.7538 12.76 68.5191 12.0453 68.0498 11.512C67.5805 10.9573 66.8871 10.68 65.9698 10.68C65.0738 10.68 64.3591 10.9787 63.8258 11.576C63.2925 12.152 63.0258 12.888 63.0258 13.784V23ZM92.2723 29.208H87.7603L91.4723 21.016L84.7843 7.256H89.5523L93.7443 16.472L97.6163 7.256H102.16L92.2723 29.208ZM102.254 22.392C101.678 21.816 101.39 21.1227 101.39 20.312C101.39 19.5013 101.678 18.8187 102.254 18.264C102.83 17.688 103.512 17.4 104.302 17.4C105.112 17.4 105.806 17.688 106.382 18.264C106.958 18.8187 107.246 19.5013 107.246 20.312C107.246 21.1227 106.958 21.816 106.382 22.392C105.806 22.9467 105.112 23.224 104.302 23.224C103.512 23.224 102.83 22.9467 102.254 22.392Z" fill="black"/>
</svg>
